<svg width="120" height="117" viewBox="0 0 120 117" fill="none" xmlns="http://www.w3.org/2000/svg">
<rect width="119.139" height="116.476" rx="30" fill="white"/>
<path d="M41.232 66.5717C41.232 70.2114 38.2903 73.1531 34.6506 73.1531C31.0109 73.1531 28.0692 70.2114 28.0692 66.5717C28.0692 62.9319 31.0109 59.9902 34.6506 59.9902H41.232V66.5717ZM44.5227 66.5717C44.5227 62.9319 47.4644 59.9902 51.1042 59.9902C54.7439 59.9902 57.6856 62.9319 57.6856 66.5717V83.0252C57.6856 86.6649 54.7439 89.6066 51.1042 89.6066C47.4644 89.6066 44.5227 86.6649 44.5227 83.0252V66.5717Z" fill="#E01E5A"/>
<path d="M51.1044 40.1453C47.4646 40.1453 44.5229 37.2036 44.5229 33.5638C44.5229 29.9241 47.4646 26.9824 51.1044 26.9824C54.7441 26.9824 57.6858 29.9241 57.6858 33.5638V40.1453H51.1044ZM51.1044 43.4858C54.7441 43.4858 57.6858 46.4275 57.6858 50.0673C57.6858 53.707 54.7441 56.6487 51.1044 56.6487H34.601C30.9612 56.6487 28.0195 53.707 28.0195 50.0673C28.0195 46.4275 30.9612 43.4858 34.601 43.4858H51.1044Z" fill="#36C5F0"/>
<path d="M77.4801 50.0673C77.4801 46.4275 80.4218 43.4858 84.0615 43.4858C87.7013 43.4858 90.643 46.4275 90.643 50.0673C90.643 53.707 87.7013 56.6487 84.0615 56.6487H77.4801V50.0673ZM74.1894 50.0673C74.1894 53.707 71.2477 56.6487 67.608 56.6487C63.9683 56.6487 61.0266 53.707 61.0266 50.0673V33.5638C61.0266 29.9241 63.9683 26.9824 67.608 26.9824C71.2477 26.9824 74.1894 29.9241 74.1894 33.5638V50.0673Z" fill="#2EB67D"/>
<path d="M67.6081 76.4438C71.2478 76.4438 74.1895 79.3855 74.1895 83.0252C74.1895 86.6649 71.2478 89.6066 67.6081 89.6066C63.9684 89.6066 61.0267 86.6649 61.0267 83.0252V76.4438H67.6081ZM67.6081 73.1531C63.9684 73.1531 61.0267 70.2114 61.0267 66.5717C61.0267 62.9319 63.9684 59.9902 67.6081 59.9902H84.1115C87.7513 59.9902 90.693 62.9319 90.693 66.5717C90.693 70.2114 87.7513 73.1531 84.1115 73.1531H67.6081Z" fill="#ECB22E"/>
</svg>
